<svg width="28" height="28" viewBox="0 0 28 28" fill="none" xmlns="http://www.w3.org/2000/svg">
<rect width="28" height="28" rx="14" fill="white"/>
<path d="M13.9916 5.66667C9.39163 5.66667 5.66663 9.4 5.66663 14C5.66663 18.6 9.39163 22.3333 13.9916 22.3333C18.6 22.3333 22.3333 18.6 22.3333 14C22.3333 9.4 18.6 5.66667 13.9916 5.66667ZM19.7666 10.6667H17.3083C17.0471 9.63468 16.6609 8.63842 16.1583 7.7C17.6784 8.22334 18.9593 9.27644 19.7666 10.6667ZM14 7.36667C14.6916 8.36667 15.2333 9.475 15.5916 10.6667H12.4083C12.7666 9.475 13.3083 8.36667 14 7.36667ZM7.54996 15.6667C7.41663 15.1333 7.33329 14.575 7.33329 14C7.33329 13.425 7.41663 12.8667 7.54996 12.3333H10.3666C10.3 12.8833 10.25 13.4333 10.25 14C10.25 14.5667 10.3 15.1167 10.3666 15.6667H7.54996ZM8.23329 17.3333H10.6916C10.9583 18.375 11.3416 19.375 11.8416 20.3C10.3204 19.7787 9.03891 18.725 8.23329 17.3333ZM10.6916 10.6667H8.23329C9.03891 9.27496 10.3204 8.22134 11.8416 7.7C11.339 8.63842 10.9528 9.63468 10.6916 10.6667ZM14 20.6333C13.3083 19.6333 12.7666 18.525 12.4083 17.3333H15.5916C15.2333 18.525 14.6916 19.6333 14 20.6333ZM15.95 15.6667H12.05C11.975 15.1167 11.9166 14.5667 11.9166 14C11.9166 13.4333 11.975 12.875 12.05 12.3333H15.95C16.025 12.875 16.0833 13.4333 16.0833 14C16.0833 14.5667 16.025 15.1167 15.95 15.6667ZM16.1583 20.3C16.6583 19.375 17.0416 18.375 17.3083 17.3333H19.7666C18.9593 18.7236 17.6784 19.7767 16.1583 20.3ZM17.6333 15.6667C17.7 15.1167 17.75 14.5667 17.75 14C17.75 13.4333 17.7 12.8833 17.6333 12.3333H20.45C20.5833 12.8667 20.6666 13.425 20.6666 14C20.6666 14.575 20.5833 15.1333 20.45 15.6667H17.6333Z" fill="black"/>
</svg>
