<svg width="28" height="28" viewBox="0 0 28 28" fill="none" xmlns="http://www.w3.org/2000/svg">
<rect width="28" height="28" rx="14" fill="white"/>
<path d="M14 8.60938C13.7721 8.60938 13.5535 8.51883 13.3923 8.35767C13.2312 8.19651 13.1406 7.97792 13.1406 7.75V5.875C13.1406 5.64708 13.2312 5.42849 13.3923 5.26733C13.5535 5.10617 13.7721 5.01562 14 5.01562C14.2279 5.01562 14.4465 5.10617 14.6077 5.26733C14.7688 5.42849 14.8594 5.64708 14.8594 5.875V7.75C14.8594 7.97792 14.7688 8.19651 14.6077 8.35767C14.4465 8.51883 14.2279 8.60938 14 8.60938ZM14 22.9844C13.7721 22.9844 13.5535 22.8938 13.3923 22.7327C13.2312 22.5715 13.1406 22.3529 13.1406 22.125V20.25C13.1406 20.0221 13.2312 19.8035 13.3923 19.6423C13.5535 19.4812 13.7721 19.3906 14 19.3906C14.2279 19.3906 14.4465 19.4812 14.6077 19.6423C14.7688 19.8035 14.8594 20.0221 14.8594 20.25V22.125C14.8594 22.3529 14.7688 22.5715 14.6077 22.7327C14.4465 22.8938 14.2279 22.9844 14 22.9844ZM18.4195 10.4398C18.2496 10.4398 18.0835 10.3894 17.9422 10.295C17.8009 10.2006 17.6908 10.0664 17.6257 9.90945C17.5607 9.75247 17.5436 9.57972 17.5767 9.41305C17.6098 9.24637 17.6916 9.09325 17.8117 8.97305L19.1375 7.64727C19.2994 7.48961 19.5168 7.40204 19.7428 7.40353C19.9687 7.40502 20.185 7.49544 20.3448 7.65522C20.5046 7.81499 20.595 8.03127 20.5965 8.25723C20.598 8.48318 20.5104 8.70063 20.3527 8.8625L19.027 10.1883C18.9473 10.2681 18.8526 10.3315 18.7483 10.3747C18.6441 10.4178 18.5324 10.44 18.4195 10.4398ZM8.25469 20.6047C8.08471 20.6047 7.91856 20.5542 7.77724 20.4598C7.63593 20.3653 7.52579 20.2311 7.46077 20.074C7.39576 19.917 7.37877 19.7442 7.41197 19.5775C7.44516 19.4108 7.52705 19.2577 7.64727 19.1375L8.97305 17.8117C9.05245 17.7302 9.14726 17.6652 9.25197 17.6207C9.35668 17.5761 9.4692 17.5527 9.58301 17.552C9.69681 17.5512 9.80963 17.5731 9.91492 17.6163C10.0202 17.6595 10.1159 17.7232 10.1963 17.8037C10.2768 17.8841 10.3405 17.9798 10.3837 18.0851C10.4269 18.1904 10.4488 18.3032 10.448 18.417C10.4473 18.5308 10.4239 18.6433 10.3793 18.748C10.3348 18.8527 10.2698 18.9475 10.1883 19.027L8.8625 20.3527C8.78278 20.4327 8.68804 20.4961 8.58374 20.5394C8.47943 20.5826 8.3676 20.6048 8.25469 20.6047ZM22.125 14.8594H20.25C20.0221 14.8594 19.8035 14.7688 19.6423 14.6077C19.4812 14.4465 19.3906 14.2279 19.3906 14C19.3906 13.7721 19.4812 13.5535 19.6423 13.3923C19.8035 13.2312 20.0221 13.1406 20.25 13.1406H22.125C22.3529 13.1406 22.5715 13.2312 22.7327 13.3923C22.8938 13.5535 22.9844 13.7721 22.9844 14C22.9844 14.2279 22.8938 14.4465 22.7327 14.6077C22.5715 14.7688 22.3529 14.8594 22.125 14.8594ZM7.75 14.8594H5.875C5.64708 14.8594 5.42849 14.7688 5.26733 14.6077C5.10617 14.4465 5.01562 14.2279 5.01562 14C5.01562 13.7721 5.10617 13.5535 5.26733 13.3923C5.42849 13.2312 5.64708 13.1406 5.875 13.1406H7.75C7.97792 13.1406 8.19651 13.2312 8.35767 13.3923C8.51883 13.5535 8.60938 13.7721 8.60938 14C8.60938 14.2279 8.51883 14.4465 8.35767 14.6077C8.19651 14.7688 7.97792 14.8594 7.75 14.8594ZM19.7453 20.6047C19.6324 20.6048 19.5206 20.5826 19.4163 20.5394C19.312 20.4961 19.2172 20.4327 19.1375 20.3527L17.8117 19.027C17.6541 18.8651 17.5665 18.6476 17.568 18.4217C17.5695 18.1957 17.6599 17.9794 17.8197 17.8197C17.9794 17.6599 18.1957 17.5695 18.4217 17.568C18.6476 17.5665 18.8651 17.6541 19.027 17.8117L20.3527 19.1375C20.473 19.2577 20.5548 19.4108 20.588 19.5775C20.6212 19.7442 20.6042 19.917 20.5392 20.074C20.4742 20.2311 20.3641 20.3653 20.2228 20.4598C20.0814 20.5542 19.9153 20.6047 19.7453 20.6047ZM9.58047 10.4398C9.46763 10.44 9.35587 10.4179 9.25163 10.3747C9.14738 10.3316 9.0527 10.2682 8.97305 10.1883L7.64727 8.8625C7.48961 8.70063 7.40204 8.48318 7.40353 8.25723C7.40502 8.03127 7.49544 7.81499 7.65522 7.65522C7.81499 7.49544 8.03127 7.40502 8.25723 7.40353C8.48318 7.40204 8.70063 7.48961 8.8625 7.64727L10.1883 8.97305C10.3084 9.09325 10.3902 9.24637 10.4233 9.41305C10.4564 9.57972 10.4393 9.75247 10.3743 9.90945C10.3092 10.0664 10.1991 10.2006 10.0578 10.295C9.91651 10.3894 9.7504 10.4398 9.58047 10.4398ZM14 17.9844C13.212 17.9844 12.4416 17.7507 11.7864 17.3129C11.1312 16.8751 10.6205 16.2528 10.3189 15.5248C10.0173 14.7967 9.93845 13.9956 10.0922 13.2227C10.2459 12.4498 10.6254 11.7398 11.1826 11.1826C11.7398 10.6254 12.4498 10.2459 13.2227 10.0922C13.9956 9.93845 14.7967 10.0173 15.5248 10.3189C16.2528 10.6205 16.8751 11.1312 17.3129 11.7864C17.7507 12.4416 17.9844 13.212 17.9844 14C17.9831 15.0563 17.563 16.0691 16.816 16.816C16.0691 17.563 15.0563 17.9831 14 17.9844Z" fill="black"/>
</svg>
